<svg width="382" height="382" viewBox="0 0 382 382" fill="none" xmlns="http://www.w3.org/2000/svg">
<path d="M61.8408 274.241C57.3788 274.241 54.2085 271.892 52.3299 267.196C50.5686 262.5 49.688 254.983 49.688 244.651C49.688 229.388 51.8603 214.886 56.2047 201.148C57.2615 197.742 58.964 195.276 61.3124 193.75C63.7782 192.106 67.1834 191.284 71.5279 191.284C73.8763 191.284 75.52 191.577 76.4594 192.165C77.3989 192.753 77.8685 193.867 77.8685 195.512C77.8685 197.39 76.9878 201.617 75.2265 208.193C74.0524 212.889 73.113 216.999 72.4085 220.522C71.704 224.044 71.1168 228.388 70.6472 233.555C74.522 223.457 78.8665 215.238 83.6807 208.897C88.4949 202.557 93.1916 198.037 97.7709 195.335C102.468 192.634 106.753 191.284 110.628 191.284C118.261 191.284 122.077 195.1 122.077 202.733C122.077 204.259 121.548 207.957 120.491 213.829C119.552 218.525 119.082 221.462 119.082 222.635C119.082 226.746 120.55 228.8 123.486 228.8C126.773 228.8 131 226.217 136.167 221.05C137.693 219.524 139.279 218.76 140.922 218.76C142.448 218.76 143.624 219.465 144.445 220.874C145.385 222.166 145.854 223.928 145.854 226.158C145.854 230.502 144.68 233.907 142.331 236.373C139.044 239.779 135.169 242.714 130.707 245.18C126.362 247.529 121.724 248.702 116.793 248.702C110.57 248.702 105.814 247.117 102.526 243.947C99.3561 240.776 97.7709 236.49 97.7709 231.089C97.7709 229.328 97.9471 227.567 98.2993 225.806C98.5342 223.457 98.6516 221.871 98.6516 221.05C98.6516 219.172 98.0058 218.232 96.7142 218.232C94.9529 218.232 92.6047 220.229 89.669 224.22C86.851 228.095 84.0329 233.262 81.2149 239.72C78.3968 246.177 76.1072 252.989 74.3459 260.151C73.0542 265.67 71.5279 269.426 69.7666 271.423C68.1227 273.301 65.4807 274.241 61.8408 274.241ZM151.152 274.241C143.519 274.241 137.942 271.539 134.419 266.139C131.014 260.738 129.312 253.574 129.312 244.651C129.312 239.367 129.957 232.615 131.249 224.397C132.658 216.059 134.419 208.31 136.533 201.148C137.59 197.39 138.999 194.807 140.76 193.398C142.522 191.989 145.34 191.284 149.215 191.284C155.203 191.284 158.197 193.281 158.197 197.273C158.197 200.208 157.081 207.019 154.851 217.704C152.033 230.62 150.624 239.367 150.624 243.947C150.624 247.469 151.093 250.171 152.033 252.049C152.971 253.927 154.556 254.867 156.788 254.867C158.902 254.867 161.544 253.398 164.714 250.463C167.884 247.529 172.111 242.89 177.395 236.549C178.804 234.905 180.389 234.084 182.151 234.084C183.676 234.084 184.85 234.788 185.673 236.197C186.611 237.606 187.082 239.544 187.082 242.009C187.082 246.705 185.966 250.347 183.736 252.929C172.111 267.136 161.249 274.241 151.152 274.241ZM272.873 234.084C274.399 234.084 275.572 234.788 276.395 236.197C277.333 237.606 277.804 239.544 277.804 242.009C277.804 246.705 276.688 250.347 274.458 252.929C269.643 258.801 264.359 263.849 258.607 268.076C252.852 272.187 247.158 274.241 241.522 274.241C232.597 274.241 225.787 269.016 221.091 258.565C216.16 264.789 211.814 268.957 208.058 271.07C204.416 273.184 200.132 274.241 195.2 274.241C188.037 274.241 182.108 271.599 177.411 266.315C172.832 260.914 170.543 253.927 170.543 245.356C170.543 235.962 172.537 227.274 176.531 219.289C180.522 211.187 185.982 204.611 192.911 199.562C199.956 194.395 207.822 191.344 216.512 190.404C218.742 167.624 222.969 148.193 229.193 132.105C235.534 115.902 243.812 107.8 254.027 107.8C259.075 107.8 263.243 110.089 266.532 114.669C269.936 119.248 271.64 126.176 271.64 135.452C271.64 148.602 268.41 163.985 261.953 181.597C255.494 199.21 246.863 217.292 236.062 235.845C236.531 242.654 237.528 247.529 239.056 250.463C240.699 253.398 242.755 254.867 245.221 254.867C248.391 254.867 251.619 253.458 254.908 250.64C258.195 247.822 262.598 243.126 268.117 236.549C269.526 234.905 271.112 234.084 272.873 234.084ZM252.09 125.06C249.857 125.06 247.627 129.053 245.397 137.037C243.165 144.903 241.227 155.238 239.585 168.036C238.057 180.834 236.943 194.219 236.238 208.193C249.388 179.543 255.965 156.528 255.965 139.151C255.965 134.689 255.553 131.225 254.732 128.759C254.027 126.293 253.147 125.06 252.09 125.06ZM201.365 256.452C203.595 256.452 205.825 255.571 208.058 253.81C210.288 251.932 213.106 248.526 216.512 243.594C215.336 237.254 214.751 230.149 214.751 222.283C214.751 219.465 214.867 214.886 215.103 208.545C208.643 210.542 203.243 214.886 198.899 221.578C194.672 228.155 192.559 235.493 192.559 243.594C192.559 252.165 195.493 256.452 201.365 256.452ZM326.53 239.367C328.056 239.367 329.23 240.072 330.053 241.481C330.991 242.89 331.462 244.827 331.462 247.293C331.462 251.52 330.463 255.16 328.468 258.213C325.179 263.261 320.835 267.196 315.434 270.014C310.151 272.832 303.81 274.241 296.413 274.241C285.14 274.241 276.391 270.894 270.17 264.201C263.946 257.392 260.835 248.233 260.835 236.725C260.835 228.624 262.537 221.11 265.942 214.181C269.346 207.136 274.044 201.559 280.033 197.449C286.138 193.339 293.007 191.284 300.64 191.284C307.449 191.284 312.909 193.339 317.02 197.449C321.128 201.441 323.184 206.9 323.184 213.829C323.184 221.931 320.247 228.916 314.378 234.788C308.623 240.541 298.76 245.12 284.788 248.526C287.606 253.927 292.362 256.628 299.055 256.628C303.867 256.628 307.801 255.512 310.855 253.282C314.025 251.051 317.665 247.293 321.775 242.009C323.184 240.248 324.769 239.367 326.53 239.367ZM297.645 208.545C293.3 208.545 289.601 211.07 286.549 216.119C283.613 221.167 282.146 227.274 282.146 234.436V234.788C289.073 233.144 294.533 230.678 298.526 227.391C302.518 224.104 304.514 220.286 304.514 215.942C304.514 213.712 303.867 211.951 302.577 210.659C301.402 209.25 299.759 208.545 297.645 208.545Z" fill="#22C399"/>
<path d="M154.595 180.332C149.663 180.332 145.965 179.216 143.499 176.985C141.033 174.636 139.8 171.409 139.8 167.298C139.8 163.188 141.385 159.784 144.556 157.083C147.843 154.265 151.894 152.856 156.709 152.856C161.052 152.856 164.575 153.913 167.276 156.026C169.978 158.14 171.327 161.134 171.327 165.009C171.327 169.705 169.801 173.463 166.748 176.281C163.694 178.982 159.643 180.332 154.595 180.332Z" fill="#22C399"/>
<rect x="5" y="5" width="372" height="372" stroke="#FF9933" stroke-width="10"/>
<rect x="25" y="25" width="332" height="332" stroke="#138808" stroke-width="10"/>
</svg>
